<svg xmlns="http://www.w3.org/2000/svg" height="48" viewBox="0 -960 960 960" width="48"><path d="M800.826-101.174q-122.305 0-247.109-58T323.609-322.478q-105.87-104.87-164.153-230.739-58.282-125.87-58.282-247.043 0-25.088 16.739-42.11 16.739-17.021 41.827-17.021h145.434q23.609 0 39.479 13.674 15.87 13.674 21 37.718l27.87 121.216q1.565 20.348-2.631 37.435-4.196 17.088-15.283 27.044L272.74-523.087q21.739 38.609 49.326 73.283 27.586 34.674 60.325 65.847 34.305 36.87 70.696 64.326 36.391 27.457 74.434 48.196L628.26-372.609q12.957-14.522 29.892-19.718t35.849-.935l114.129 25.913q23.479 6.826 37.37 23.348 13.891 16.522 13.891 40.001v144.26q0 25.088-17.021 41.827-17.022 16.739-41.544 16.739Z"/></svg>